<svg width="663" height="183" viewBox="0 0 663 183" fill="none" xmlns="http://www.w3.org/2000/svg">
<path d="M172.36 101V29H183.16V39.944C184.792 37.064 187.384 34.328 190.936 31.736C194.488 29.144 199.192 27.848 205.048 27.848C209.848 27.848 214.264 29.144 218.296 31.736C222.424 34.232 225.64 37.784 227.944 42.392C228.904 40.76 230.392 38.792 232.408 36.488C234.52 34.184 237.256 32.168 240.616 30.44C243.976 28.712 248.008 27.848 252.712 27.848C257.32 27.848 261.64 29.048 265.672 31.448C269.704 33.848 272.968 37.304 275.464 41.816C278.056 46.232 279.352 51.464 279.352 57.512V101H268.552V57.8C268.552 51.752 266.824 46.904 263.368 43.256C260.008 39.512 255.784 37.64 250.696 37.64C245.416 37.64 240.856 39.416 237.016 42.968C233.176 46.52 231.256 51.512 231.256 57.944V101H220.456V57.8C220.456 51.752 218.728 46.904 215.272 43.256C211.912 39.512 207.688 37.64 202.6 37.64C197.32 37.64 192.76 39.416 188.92 42.968C185.08 46.52 183.16 51.512 183.16 57.944V101H172.36ZM328.624 102.152C321.328 102.152 314.992 100.52 309.616 97.256C304.24 93.896 300.112 89.384 297.232 83.72C294.352 78.056 292.912 71.816 292.912 65C292.912 58.088 294.352 51.848 297.232 46.28C300.112 40.616 304.24 36.152 309.616 32.888C314.992 29.528 321.328 27.848 328.624 27.848C336.016 27.848 342.352 29.528 347.632 32.888C353.008 36.152 357.136 40.616 360.016 46.28C362.896 51.848 364.336 58.088 364.336 65C364.336 71.816 362.896 78.056 360.016 83.72C357.136 89.384 353.008 93.896 347.632 97.256C342.352 100.52 336.016 102.152 328.624 102.152ZM328.624 92.36C334 92.36 338.512 91.112 342.16 88.616C345.904 86.12 348.736 82.808 350.656 78.68C352.576 74.456 353.536 69.896 353.536 65C353.536 60.008 352.576 55.448 350.656 51.32C348.736 47.192 345.904 43.88 342.16 41.384C338.512 38.888 334 37.64 328.624 37.64C323.344 37.64 318.832 38.888 315.088 41.384C311.344 43.88 308.512 47.192 306.592 51.32C304.672 55.448 303.712 60.008 303.712 65C303.712 69.896 304.672 74.456 306.592 78.68C308.512 82.808 311.344 86.12 315.088 88.616C318.832 91.112 323.344 92.36 328.624 92.36ZM415.233 102.152C409.281 102.152 404.145 101 399.825 98.696C395.601 96.392 392.145 93.32 389.457 89.48V101H378.657V0.199993H389.457V40.664C392.145 36.728 395.601 33.608 399.825 31.304C404.145 29 409.281 27.848 415.233 27.848C422.241 27.848 428.337 29.528 433.521 32.888C438.801 36.152 442.881 40.616 445.761 46.28C448.641 51.848 450.081 58.088 450.081 65C450.081 71.816 448.641 78.056 445.761 83.72C442.881 89.384 438.801 93.896 433.521 97.256C428.337 100.52 422.241 102.152 415.233 102.152ZM413.793 92.36C419.169 92.36 423.729 91.112 427.473 88.616C431.313 86.12 434.241 82.808 436.257 78.68C438.273 74.456 439.281 69.896 439.281 65C439.281 60.008 438.273 55.448 436.257 51.32C434.241 47.192 431.313 43.88 427.473 41.384C423.729 38.888 419.169 37.64 413.793 37.64C408.513 37.64 404.001 38.888 400.257 41.384C396.513 43.88 393.681 47.192 391.761 51.32C389.841 55.448 388.881 60.008 388.881 65C388.881 69.896 389.841 74.456 391.761 78.68C393.681 82.808 396.513 86.12 400.257 88.616C404.001 91.112 408.513 92.36 413.793 92.36ZM463.866 16.904V2.79199H475.53V16.904H463.866ZM464.298 101V29H475.098V101H464.298ZM521.909 102.152C517.013 102.152 512.357 101 507.941 98.696C503.525 96.296 499.925 92.792 497.141 88.184C494.453 83.48 493.109 77.72 493.109 70.904V29H503.909V70.616C503.909 77.144 505.781 82.424 509.525 86.456C513.365 90.392 518.213 92.36 524.069 92.36C528.101 92.36 531.749 91.448 535.013 89.624C538.277 87.704 540.869 85.112 542.789 81.848C544.805 78.584 545.813 74.792 545.813 70.472V29H556.613V101H545.813V89.768C543.221 93.224 540.053 96.152 536.309 98.552C532.565 100.952 527.765 102.152 521.909 102.152ZM601.599 102.152C594.975 102.152 589.359 101.048 584.751 98.84C580.239 96.632 576.783 93.752 574.383 90.2C571.983 86.552 570.639 82.616 570.351 78.392H581.583C581.871 80.792 582.687 83.144 584.031 85.448C585.471 87.656 587.631 89.48 590.511 90.92C593.391 92.264 597.135 92.936 601.743 92.936C603.183 92.936 604.959 92.792 607.071 92.504C609.183 92.216 611.199 91.688 613.119 90.92C615.135 90.152 616.815 89 618.159 87.464C619.503 85.928 620.175 83.96 620.175 81.56C620.175 78.584 619.023 76.28 616.719 74.648C614.415 73.016 611.439 71.768 607.791 70.904C604.143 69.944 600.255 69.032 596.127 68.168C592.095 67.304 588.255 66.2 584.607 64.856C580.959 63.416 577.983 61.448 575.679 58.952C573.375 56.36 572.223 52.856 572.223 48.44C572.223 41.912 574.575 36.872 579.279 33.32C584.079 29.672 591.135 27.848 600.447 27.848C606.783 27.848 611.919 28.856 615.855 30.872C619.887 32.792 622.911 35.288 624.927 38.36C627.039 41.432 628.287 44.744 628.671 48.296H617.727C617.343 45.224 615.807 42.584 613.119 40.376C610.527 38.168 606.207 37.064 600.159 37.064C588.735 37.064 583.023 40.52 583.023 47.432C583.023 50.312 584.175 52.52 586.479 54.056C588.783 55.592 591.759 56.84 595.407 57.8C599.055 58.664 602.895 59.528 606.927 60.392C611.055 61.16 614.943 62.264 618.591 63.704C622.239 65.144 625.215 67.208 627.519 69.896C629.823 72.488 630.975 76.04 630.975 80.552C630.975 87.56 628.287 92.936 622.911 96.68C617.631 100.328 610.527 102.152 601.599 102.152Z" fill="#335EEA"/>
<path d="M180.15 165V123.63H163.98V118.66H201.57V123.63H185.4V165H180.15ZM208.25 165V118.66H242.34V123.7H213.5V139.24H239.26V144.35H213.5V159.96H242.34V165H208.25ZM269.478 165.56C264.858 165.56 260.868 164.51 257.508 162.41C254.148 160.263 251.558 157.393 249.738 153.8C247.964 150.207 247.078 146.217 247.078 141.83C247.078 137.443 247.964 133.453 249.738 129.86C251.558 126.267 254.148 123.42 257.508 121.32C260.868 119.173 264.858 118.1 269.478 118.1C272.978 118.1 276.128 118.73 278.928 119.99C281.728 121.203 284.108 122.883 286.068 125.03C288.028 127.177 289.498 129.673 290.478 132.52H284.948C283.781 129.673 281.938 127.41 279.418 125.73C276.898 124.05 273.724 123.21 269.898 123.21C266.164 123.21 262.968 124.05 260.308 125.73C257.694 127.363 255.711 129.58 254.358 132.38C253.004 135.18 252.328 138.33 252.328 141.83C252.328 145.283 253.004 148.433 254.358 151.28C255.711 154.08 257.694 156.32 260.308 158C262.968 159.633 266.164 160.45 269.898 160.45C273.724 160.45 276.898 159.61 279.418 157.93C281.938 156.25 283.781 153.987 284.948 151.14H290.478C289.498 153.94 288.028 156.437 286.068 158.63C284.108 160.777 281.728 162.48 278.928 163.74C276.128 164.953 272.978 165.56 269.478 165.56ZM298.348 165V118.66H303.598V139.24H330.548V118.66H335.798V165H330.548V144.35H303.598V165H298.348ZM347.156 165V118.66H353.246L381.876 157.65V118.66H387.126V165H381.036L352.406 125.87V165H347.156ZM419.074 165.56C415.574 165.56 412.378 164.953 409.484 163.74C406.591 162.527 404.094 160.823 401.994 158.63C399.941 156.437 398.354 153.917 397.234 151.07C396.114 148.177 395.554 145.097 395.554 141.83C395.554 138.517 396.114 135.437 397.234 132.59C398.354 129.743 399.941 127.223 401.994 125.03C404.094 122.837 406.591 121.133 409.484 119.92C412.378 118.707 415.574 118.1 419.074 118.1C422.574 118.1 425.771 118.707 428.664 119.92C431.558 121.133 434.031 122.837 436.084 125.03C438.184 127.223 439.794 129.743 440.914 132.59C442.034 135.437 442.594 138.517 442.594 141.83C442.594 145.097 442.034 148.177 440.914 151.07C439.794 153.917 438.184 156.437 436.084 158.63C434.031 160.823 431.558 162.527 428.664 163.74C425.771 164.953 422.574 165.56 419.074 165.56ZM419.074 160.45C422.854 160.45 426.098 159.633 428.804 158C431.558 156.32 433.658 154.08 435.104 151.28C436.598 148.433 437.344 145.283 437.344 141.83C437.344 138.33 436.598 135.18 435.104 132.38C433.658 129.58 431.558 127.363 428.804 125.73C426.098 124.05 422.854 123.21 419.074 123.21C415.341 123.21 412.098 124.05 409.344 125.73C406.591 127.363 404.468 129.58 402.974 132.38C401.528 135.18 400.804 138.33 400.804 141.83C400.804 145.283 401.528 148.433 402.974 151.28C404.468 154.08 406.591 156.32 409.344 158C412.098 159.633 415.341 160.45 419.074 160.45ZM450.994 165V118.66H456.244V159.96H481.514V165H450.994ZM506.848 165.56C503.348 165.56 500.151 164.953 497.258 163.74C494.364 162.527 491.868 160.823 489.768 158.63C487.714 156.437 486.128 153.917 485.008 151.07C483.888 148.177 483.328 145.097 483.328 141.83C483.328 138.517 483.888 135.437 485.008 132.59C486.128 129.743 487.714 127.223 489.768 125.03C491.868 122.837 494.364 121.133 497.258 119.92C500.151 118.707 503.348 118.1 506.848 118.1C510.348 118.1 513.544 118.707 516.438 119.92C519.331 121.133 521.804 122.837 523.858 125.03C525.958 127.223 527.568 129.743 528.688 132.59C529.808 135.437 530.368 138.517 530.368 141.83C530.368 145.097 529.808 148.177 528.688 151.07C527.568 153.917 525.958 156.437 523.858 158.63C521.804 160.823 519.331 162.527 516.438 163.74C513.544 164.953 510.348 165.56 506.848 165.56ZM506.848 160.45C510.628 160.45 513.871 159.633 516.578 158C519.331 156.32 521.431 154.08 522.878 151.28C524.371 148.433 525.118 145.283 525.118 141.83C525.118 138.33 524.371 135.18 522.878 132.38C521.431 129.58 519.331 127.363 516.578 125.73C513.871 124.05 510.628 123.21 506.848 123.21C503.114 123.21 499.871 124.05 497.118 125.73C494.364 127.363 492.241 129.58 490.748 132.38C489.301 135.18 488.578 138.33 488.578 141.83C488.578 145.283 489.301 148.433 490.748 151.28C492.241 154.08 494.364 156.32 497.118 158C499.871 159.633 503.114 160.45 506.848 160.45ZM558.508 165.56C553.794 165.56 549.734 164.51 546.328 162.41C542.968 160.263 540.378 157.393 538.558 153.8C536.738 150.207 535.828 146.217 535.828 141.83C535.828 137.443 536.761 133.453 538.628 129.86C540.494 126.267 543.131 123.42 546.538 121.32C549.991 119.173 554.028 118.1 558.648 118.1C563.641 118.1 567.958 119.337 571.598 121.81C575.284 124.237 577.991 127.387 579.718 131.26H573.978C572.578 128.787 570.618 126.827 568.098 125.38C565.624 123.933 562.614 123.21 559.068 123.21C555.334 123.21 552.114 124.05 549.408 125.73C546.701 127.363 544.624 129.58 543.178 132.38C541.778 135.18 541.078 138.33 541.078 141.83C541.078 145.283 541.778 148.433 543.178 151.28C544.578 154.08 546.608 156.32 549.268 158C551.974 159.633 555.194 160.45 558.928 160.45C561.728 160.45 564.364 159.843 566.838 158.63C569.358 157.417 571.388 155.667 572.928 153.38C574.514 151.093 575.308 148.34 575.308 145.12H558.368V140.36H580.138V165H575.308V156.81C574.328 158.303 573.068 159.727 571.528 161.08C569.988 162.387 568.121 163.46 565.928 164.3C563.781 165.14 561.308 165.56 558.508 165.56ZM601.508 165V146.66L582.048 118.66H588.418L604.098 141.2L619.778 118.66H626.148L606.758 146.66V165H601.508Z" fill="#B0BDE7"/>
<g clip-path="url(#clip0_122_30)">
<path d="M7.69196 108.077L38.8368 51.7944L56.6184 83.9211L64.308 70.0261L38.8368 24L-3.05176e-05 94.1776L7.69196 108.077Z" fill="#335EEA"/>
<path d="M103.147 168L110.838 154.102L87.3818 111.717L79.6908 125.614L103.147 168Z" fill="#335EEA"/>
<path d="M40.8528 167.998L105.163 51.7943L136.308 108.077L144 94.1776L105.163 24L33.1632 154.103L40.8528 167.998Z" fill="#B0BDE7"/>
</g>
<defs>
<clipPath id="clip0_122_30">
<rect width="144" height="144" fill="white" transform="translate(0 24)"/>
</clipPath>
</defs>
</svg>
