<svg width="591" height="112" viewBox="0 0 591 112" fill="none" xmlns="http://www.w3.org/2000/svg">
<path d="M100.36 101V29H111.16V39.944C112.792 37.064 115.384 34.328 118.936 31.736C122.488 29.144 127.192 27.848 133.048 27.848C137.848 27.848 142.264 29.144 146.296 31.736C150.424 34.232 153.64 37.784 155.944 42.392C156.904 40.76 158.392 38.792 160.408 36.488C162.52 34.184 165.256 32.168 168.616 30.44C171.976 28.712 176.008 27.848 180.712 27.848C185.32 27.848 189.64 29.048 193.672 31.448C197.704 33.848 200.968 37.304 203.464 41.816C206.056 46.232 207.352 51.464 207.352 57.512V101H196.552V57.8C196.552 51.752 194.824 46.904 191.368 43.256C188.008 39.512 183.784 37.64 178.696 37.64C173.416 37.64 168.856 39.416 165.016 42.968C161.176 46.52 159.256 51.512 159.256 57.944V101H148.456V57.8C148.456 51.752 146.728 46.904 143.272 43.256C139.912 39.512 135.688 37.64 130.6 37.64C125.32 37.64 120.76 39.416 116.92 42.968C113.08 46.52 111.16 51.512 111.16 57.944V101H100.36ZM256.624 102.152C249.328 102.152 242.992 100.52 237.616 97.256C232.24 93.896 228.112 89.384 225.232 83.72C222.352 78.056 220.912 71.816 220.912 65C220.912 58.088 222.352 51.848 225.232 46.28C228.112 40.616 232.24 36.152 237.616 32.888C242.992 29.528 249.328 27.848 256.624 27.848C264.016 27.848 270.352 29.528 275.632 32.888C281.008 36.152 285.136 40.616 288.016 46.28C290.896 51.848 292.336 58.088 292.336 65C292.336 71.816 290.896 78.056 288.016 83.72C285.136 89.384 281.008 93.896 275.632 97.256C270.352 100.52 264.016 102.152 256.624 102.152ZM256.624 92.36C262 92.36 266.512 91.112 270.16 88.616C273.904 86.12 276.736 82.808 278.656 78.68C280.576 74.456 281.536 69.896 281.536 65C281.536 60.008 280.576 55.448 278.656 51.32C276.736 47.192 273.904 43.88 270.16 41.384C266.512 38.888 262 37.64 256.624 37.64C251.344 37.64 246.832 38.888 243.088 41.384C239.344 43.88 236.512 47.192 234.592 51.32C232.672 55.448 231.712 60.008 231.712 65C231.712 69.896 232.672 74.456 234.592 78.68C236.512 82.808 239.344 86.12 243.088 88.616C246.832 91.112 251.344 92.36 256.624 92.36ZM343.233 102.152C337.281 102.152 332.145 101 327.825 98.696C323.601 96.392 320.145 93.32 317.457 89.48V101H306.657V0.199993H317.457V40.664C320.145 36.728 323.601 33.608 327.825 31.304C332.145 29 337.281 27.848 343.233 27.848C350.241 27.848 356.337 29.528 361.521 32.888C366.801 36.152 370.881 40.616 373.761 46.28C376.641 51.848 378.081 58.088 378.081 65C378.081 71.816 376.641 78.056 373.761 83.72C370.881 89.384 366.801 93.896 361.521 97.256C356.337 100.52 350.241 102.152 343.233 102.152ZM341.793 92.36C347.169 92.36 351.729 91.112 355.473 88.616C359.313 86.12 362.241 82.808 364.257 78.68C366.273 74.456 367.281 69.896 367.281 65C367.281 60.008 366.273 55.448 364.257 51.32C362.241 47.192 359.313 43.88 355.473 41.384C351.729 38.888 347.169 37.64 341.793 37.64C336.513 37.64 332.001 38.888 328.257 41.384C324.513 43.88 321.681 47.192 319.761 51.32C317.841 55.448 316.881 60.008 316.881 65C316.881 69.896 317.841 74.456 319.761 78.68C321.681 82.808 324.513 86.12 328.257 88.616C332.001 91.112 336.513 92.36 341.793 92.36ZM391.866 16.904V2.79199H403.53V16.904H391.866ZM392.298 101V29H403.098V101H392.298ZM449.909 102.152C445.013 102.152 440.357 101 435.941 98.696C431.525 96.296 427.925 92.792 425.141 88.184C422.453 83.48 421.109 77.72 421.109 70.904V29H431.909V70.616C431.909 77.144 433.781 82.424 437.525 86.456C441.365 90.392 446.213 92.36 452.069 92.36C456.101 92.36 459.749 91.448 463.013 89.624C466.277 87.704 468.869 85.112 470.789 81.848C472.805 78.584 473.813 74.792 473.813 70.472V29H484.613V101H473.813V89.768C471.221 93.224 468.053 96.152 464.309 98.552C460.565 100.952 455.765 102.152 449.909 102.152ZM529.599 102.152C522.975 102.152 517.359 101.048 512.751 98.84C508.239 96.632 504.783 93.752 502.383 90.2C499.983 86.552 498.639 82.616 498.351 78.392H509.583C509.871 80.792 510.687 83.144 512.031 85.448C513.471 87.656 515.631 89.48 518.511 90.92C521.391 92.264 525.135 92.936 529.743 92.936C531.183 92.936 532.959 92.792 535.071 92.504C537.183 92.216 539.199 91.688 541.119 90.92C543.135 90.152 544.815 89 546.159 87.464C547.503 85.928 548.175 83.96 548.175 81.56C548.175 78.584 547.023 76.28 544.719 74.648C542.415 73.016 539.439 71.768 535.791 70.904C532.143 69.944 528.255 69.032 524.127 68.168C520.095 67.304 516.255 66.2 512.607 64.856C508.959 63.416 505.983 61.448 503.679 58.952C501.375 56.36 500.223 52.856 500.223 48.44C500.223 41.912 502.575 36.872 507.279 33.32C512.079 29.672 519.135 27.848 528.447 27.848C534.783 27.848 539.919 28.856 543.855 30.872C547.887 32.792 550.911 35.288 552.927 38.36C555.039 41.432 556.287 44.744 556.671 48.296H545.727C545.343 45.224 543.807 42.584 541.119 40.376C538.527 38.168 534.207 37.064 528.159 37.064C516.735 37.064 511.023 40.52 511.023 47.432C511.023 50.312 512.175 52.52 514.479 54.056C516.783 55.592 519.759 56.84 523.407 57.8C527.055 58.664 530.895 59.528 534.927 60.392C539.055 61.16 542.943 62.264 546.591 63.704C550.239 65.144 553.215 67.208 555.519 69.896C557.823 72.488 558.975 76.04 558.975 80.552C558.975 87.56 556.287 92.936 550.911 96.68C545.631 100.328 538.527 102.152 529.599 102.152Z" fill="#4374E0"/>
<g clip-path="url(#clip0_158_2)">
<path d="M4.27333 70.7094L21.576 39.4413L31.4547 57.2895L35.7267 49.5701L21.576 24L0 62.9876L4.27333 70.7094Z" fill="#4374E0"/>
<path d="M57.3039 104L61.5766 96.2789L48.5454 72.7316L44.2726 80.4522L57.3039 104Z" fill="#4374E0"/>
<path d="M22.696 103.999L58.4239 39.4413L75.7267 70.7094L80 62.9875L58.4239 24L18.424 96.2794L22.696 103.999Z" fill="#A0C3FF"/>
</g>
<defs>
<clipPath id="clip0_158_2">
<rect width="80" height="80" fill="white" transform="translate(0 24)"/>
</clipPath>
</defs>
</svg>
